<?xml version="1.0" standalone="no"?>
<!DOCTYPE svg PUBLIC "-//W3C//DTD SVG 20010904//EN"
 "http://www.w3.org/TR/2001/REC-SVG-20010904/DTD/svg10.dtd">
<svg version="1.0" xmlns="http://www.w3.org/2000/svg"
 width="681.000000pt" height="681.000000pt" viewBox="0 0 681.000000 681.000000"
 preserveAspectRatio="xMidYMid meet">
<metadata>
Created by potrace 1.14, written by Peter Selinger 2001-2017
</metadata>
<g transform="translate(0.000000,681.000000) scale(0.100000,-0.100000)"
fill="#000000" stroke="none">
<path d="M1875 6372 c-1 -2 -45 -5 -96 -8 -52 -2 -110 -6 -129 -8 -51 -5 -143
-18 -160 -22 -8 -2 -33 -8 -54 -13 -22 -5 -44 -8 -48 -5 -4 3 -8 1 -8 -3 0 -5
-8 -9 -18 -10 -35 -3 -202 -72 -270 -112 -98 -57 -175 -117 -269 -210 -46 -45
-80 -81 -77 -81 2 0 -5 -10 -16 -22 -32 -34 -122 -175 -154 -241 -41 -88 -89
-242 -101 -327 -2 -14 -6 -38 -9 -55 -8 -52 -16 -127 -22 -225 -10 -141 -10
-3120 -1 -3120 4 0 3 -8 -2 -18 -5 -10 -6 -24 -1 -32 5 -8 5 -21 0 -31 -5 -9
-7 -19 -3 -22 3 -4 7 -33 9 -66 7 -114 21 -228 39 -301 3 -14 8 -36 11 -50 19
-90 98 -279 142 -337 13 -18 22 -33 18 -33 -6 0 15 -27 41 -55 7 -8 13 -17 13
-21 0 -4 14 -20 30 -36 17 -15 30 -31 30 -34 0 -6 108 -114 114 -114 3 0 19
-13 36 -29 50 -45 70 -61 75 -61 3 0 15 -9 27 -20 12 -10 25 -17 30 -14 4 3 8
1 8 -4 0 -11 150 -85 230 -112 36 -12 72 -25 80 -28 8 -3 26 -7 40 -9 14 -2
45 -8 70 -13 25 -6 63 -13 85 -16 22 -2 58 -7 80 -10 22 -3 78 -8 125 -11 119
-7 3176 -7 3280 1 104 7 177 15 210 21 75 14 97 17 113 17 9 0 17 3 17 7 0 5
8 8 18 8 17 -1 92 18 122 30 8 4 17 7 20 8 59 20 160 69 160 77 0 4 9 8 19 8
11 0 21 4 23 8 2 4 21 19 42 32 90 55 258 212 313 294 16 23 33 46 39 51 36
33 148 265 155 320 1 6 6 21 11 35 13 33 33 137 53 274 16 110 19 395 18 1791
0 1340 -3 1655 -17 1755 -2 14 -7 46 -10 70 -3 25 -8 56 -11 70 -4 14 -8 37
-10 52 -2 15 -14 60 -26 100 -13 40 -23 75 -24 78 0 3 -7 16 -15 30 -7 14 -12
25 -10 25 6 0 -64 140 -72 143 -5 2 -8 10 -8 18 0 8 -7 17 -15 20 -8 4 -12 10
-9 15 3 5 1 9 -4 9 -5 0 -15 12 -23 27 -37 69 -218 245 -327 318 -137 92 -316
163 -479 190 -122 20 -187 27 -269 30 -39 1 -76 5 -82 9 -7 4 -12 2 -12 -4 0
-6 -5 -8 -12 -3 -12 7 -3066 12 -3073 5z"/>
</g>
</svg>
